<?xml version="1.0" encoding="utf-8"?>
<!-- Generator: Adobe Illustrator 15.0.0, SVG Export Plug-In . SVG Version: 6.00 Build 0)  -->
<!DOCTYPE svg PUBLIC "-//W3C//DTD SVG 1.1//EN" "http://www.w3.org/Graphics/SVG/1.1/DTD/svg11.dtd">
<svg version="1.1" id="Layer_1" xmlns="http://www.w3.org/2000/svg" xmlns:xlink="http://www.w3.org/1999/xlink" x="0px" y="0px"
	 width="129px" height="46px" viewBox="0 0 129 46" enable-background="new 0 0 129 46" xml:space="preserve">
<rect fill="#F04923" width="129" height="46"/>
<g>
	<path fill="#FFFFFF" d="M24.863,19.665c0,1.97-0.326,3.719-0.978,5.248c-0.652,1.529-1.562,2.7-2.729,3.513
		c-1.167,0.813-2.521,1.219-4.061,1.219c-1.841,0-3.273-0.533-4.297-1.601c-1.024-1.067-1.536-2.563-1.536-4.49
		c0-1.876,0.342-3.597,1.026-5.162c0.684-1.564,1.627-2.775,2.831-3.631c1.203-0.855,2.567-1.284,4.093-1.284
		c1.769,0,3.153,0.55,4.152,1.649C24.364,16.226,24.863,17.738,24.863,19.665z M19.073,15.217c-1.103,0-2.091,0.354-2.965,1.063
		c-0.874,0.709-1.551,1.703-2.03,2.981c-0.48,1.278-0.72,2.695-0.72,4.249c0,1.396,0.34,2.48,1.021,3.25
		c0.68,0.77,1.607,1.155,2.782,1.155c1.06,0,2.016-0.347,2.868-1.042c0.852-0.694,1.523-1.687,2.014-2.976
		c0.49-1.289,0.736-2.714,0.736-4.275c0-1.375-0.328-2.453-0.983-3.233C21.141,15.608,20.233,15.217,19.073,15.217z"/>
	<path fill="#FFFFFF" d="M33.759,17.419c0.501,0,0.927,0.05,1.278,0.15l-0.419,1.74c-0.401-0.086-0.777-0.129-1.128-0.129
		c-0.645,0-1.25,0.209-1.815,0.628c-0.566,0.419-1.058,1.004-1.477,1.756s-0.722,1.576-0.908,2.471l-1.139,5.393h-1.944
		l2.514-11.795H30.3l-0.236,2.181h0.107c0.522-0.688,0.952-1.178,1.289-1.472c0.336-0.293,0.691-0.521,1.063-0.682
		C32.896,17.5,33.308,17.419,33.759,17.419z"/>
	<path fill="#FFFFFF" d="M38.302,29.644c-0.981,0-1.758-0.351-2.331-1.053c-0.573-0.702-0.859-1.69-0.859-2.965
		c0-1.468,0.252-2.837,0.757-4.109c0.505-1.271,1.201-2.272,2.089-3.002c0.888-0.73,1.869-1.096,2.943-1.096
		c0.666,0,1.251,0.176,1.756,0.526c0.505,0.351,0.908,0.856,1.208,1.515h0.118l0.698-1.826h1.472l-2.503,11.795h-1.536l0.279-2.181
		h-0.086C41.07,28.846,39.734,29.644,38.302,29.644z M38.947,28.043c0.673,0,1.348-0.322,2.025-0.967s1.219-1.484,1.627-2.519
		c0.408-1.035,0.612-2.089,0.612-3.164c0-0.702-0.193-1.269-0.58-1.703c-0.387-0.433-0.899-0.65-1.536-0.65
		c-0.724,0-1.395,0.303-2.014,0.908c-0.62,0.605-1.105,1.42-1.456,2.444c-0.351,1.024-0.526,2.116-0.526,3.276
		c0,0.795,0.161,1.39,0.483,1.783C37.905,27.847,38.359,28.043,38.947,28.043z"/>
	<path fill="#FFFFFF" d="M56.215,29.429h-1.934l1.558-7.391c0.15-0.709,0.226-1.214,0.226-1.515c0-0.451-0.125-0.811-0.376-1.08
		c-0.251-0.269-0.648-0.403-1.192-0.403c-0.616,0-1.216,0.211-1.799,0.634c-0.584,0.423-1.101,1.033-1.552,1.832
		c-0.451,0.799-0.792,1.746-1.021,2.841l-1.074,5.081h-1.944l2.514-11.795h1.579l-0.236,2.181h0.107
		c0.479-0.616,0.911-1.078,1.294-1.386c0.383-0.308,0.798-0.553,1.246-0.736c0.447-0.183,0.922-0.274,1.423-0.274
		c0.924,0,1.649,0.252,2.175,0.757s0.79,1.219,0.79,2.143c0,0.559-0.079,1.203-0.236,1.934L56.215,29.429z"/>
	<path fill="#FFFFFF" d="M63.15,34.714c-1.411,0-2.593-0.251-3.545-0.752v-1.783c0.451,0.272,1.01,0.494,1.676,0.666
		s1.268,0.258,1.805,0.258c0.952,0,1.711-0.231,2.277-0.693c0.565-0.462,0.963-1.184,1.192-2.165l0.548-2.256l0.204-0.741h-0.086
		c-0.652,0.838-1.298,1.447-1.939,1.826c-0.641,0.379-1.294,0.569-1.96,0.569c-0.996,0-1.78-0.351-2.353-1.053
		c-0.573-0.702-0.859-1.69-0.859-2.965c0-1.54,0.261-2.949,0.784-4.227c0.522-1.278,1.219-2.261,2.089-2.949
		s1.842-1.031,2.917-1.031c1.368,0,2.363,0.681,2.986,2.041h0.097l0.72-1.826h1.472L68.5,30.106
		c-0.337,1.575-0.938,2.737-1.805,3.486C65.828,34.34,64.646,34.714,63.15,34.714z M63.966,28.043c0.645,0,1.307-0.326,1.987-0.978
		c0.68-0.651,1.226-1.495,1.638-2.53c0.412-1.035,0.618-2.071,0.618-3.11c0-1.59-0.72-2.385-2.159-2.385
		c-0.724,0-1.39,0.303-1.998,0.908c-0.609,0.605-1.087,1.427-1.434,2.465c-0.348,1.039-0.521,2.124-0.521,3.255
		C62.097,27.252,62.72,28.043,63.966,28.043z"/>
	<path fill="#FFFFFF" d="M76.938,29.644c-1.332,0-2.378-0.392-3.137-1.176c-0.759-0.784-1.139-1.871-1.139-3.26
		c0-1.346,0.263-2.632,0.79-3.856s1.237-2.186,2.132-2.884c0.895-0.698,1.887-1.047,2.976-1.047c1.117,0,1.958,0.242,2.524,0.725
		c0.565,0.483,0.849,1.159,0.849,2.025c0,1.304-0.602,2.322-1.805,3.056c-1.203,0.734-2.9,1.101-5.092,1.101h-0.365l-0.043,0.816
		c0,0.902,0.216,1.611,0.65,2.127c0.433,0.516,1.101,0.773,2.003,0.773c0.551,0,1.08-0.079,1.584-0.236
		c0.505-0.157,1.047-0.379,1.627-0.666v1.654c-0.709,0.33-1.329,0.553-1.858,0.671C78.105,29.585,77.54,29.644,76.938,29.644z
		 M78.453,19.02c-0.738,0-1.433,0.346-2.084,1.037c-0.652,0.691-1.125,1.592-1.418,2.702h0.161c1.561,0,2.771-0.208,3.631-0.623
		c0.859-0.415,1.289-1.021,1.289-1.815c0-0.379-0.129-0.691-0.387-0.935C79.388,19.142,78.99,19.02,78.453,19.02z"/>
	<path fill="#FFFFFF" d="M91.874,24.542h-5.296l-2.557,4.888h-2.159l8.54-15.705h2.062l1.944,15.705h-1.944L91.874,24.542z
		 M91.681,22.791l-0.354-3.287c-0.193-1.625-0.29-2.857-0.29-3.695c-0.229,0.552-0.48,1.105-0.752,1.66
		c-0.272,0.555-1.192,2.33-2.761,5.323H91.681z"/>
	<path fill="#FFFFFF" d="M105.379,29.429h-1.934l1.558-7.391c0.15-0.709,0.226-1.214,0.226-1.515c0-0.451-0.125-0.811-0.376-1.08
		c-0.251-0.269-0.648-0.403-1.192-0.403c-0.616,0-1.216,0.211-1.799,0.634c-0.584,0.423-1.101,1.033-1.552,1.832
		c-0.451,0.799-0.792,1.746-1.021,2.841l-1.074,5.081H96.27l2.514-11.795h1.579l-0.236,2.181h0.107
		c0.479-0.616,0.911-1.078,1.294-1.386c0.383-0.308,0.798-0.553,1.246-0.736c0.447-0.183,0.922-0.274,1.423-0.274
		c0.924,0,1.649,0.252,2.175,0.757s0.79,1.219,0.79,2.143c0,0.559-0.079,1.203-0.236,1.934L105.379,29.429z"/>
	<path fill="#FFFFFF" d="M112.611,28.065c0.444,0,0.963-0.097,1.558-0.29v1.482c-0.201,0.101-0.489,0.189-0.865,0.269
		c-0.376,0.079-0.704,0.118-0.983,0.118c-0.917,0-1.615-0.215-2.095-0.645c-0.48-0.43-0.72-1.07-0.72-1.923
		c0-0.458,0.064-0.981,0.193-1.568l1.343-6.402h-1.826l0.172-0.87l1.987-0.838l1.364-2.449h1.139l-0.591,2.686h2.965l-0.301,1.472
		h-2.954l-1.364,6.435c-0.129,0.58-0.193,1.017-0.193,1.311c0,0.344,0.089,0.632,0.269,0.865
		C111.888,27.949,112.188,28.065,112.611,28.065z"/>
</g>
</svg>
